<?xml version="1.0" encoding="UTF-8" standalone="no"?>
<!-- Created with Inkscape (http://www.inkscape.org/) -->

<svg
   xmlns:dc="http://purl.org/dc/elements/1.1/"
   xmlns:cc="http://creativecommons.org/ns#"
   xmlns:rdf="http://www.w3.org/1999/02/22-rdf-syntax-ns#"
   xmlns:svg="http://www.w3.org/2000/svg"
   xmlns="http://www.w3.org/2000/svg"
   xmlns:sodipodi="http://sodipodi.sourceforge.net/DTD/sodipodi-0.dtd"
   xmlns:inkscape="http://www.inkscape.org/namespaces/inkscape"
   width="257.10529"
   height="257.10529"
   id="svg3112"
   version="1.1"
   inkscape:version="0.48.3.1 r9886"
   sodipodi:docname="tinytoc.svg"
   inkscape:export-filename="/home/ideag/Documents/tinytoc_release/assets/icon-128x128.png"
   inkscape:export-xdpi="44.810001"
   inkscape:export-ydpi="44.810001">
  <defs
     id="defs3114" />
  <sodipodi:namedview
     id="base"
     pagecolor="#ffffff"
     bordercolor="#666666"
     borderopacity="1.0"
     inkscape:pageopacity="0.0"
     inkscape:pageshadow="2"
     inkscape:zoom="0.35"
     inkscape:cx="128.55264"
     inkscape:cy="128.5527"
     inkscape:document-units="px"
     inkscape:current-layer="layer1"
     showgrid="false"
     height="524.41px"
     fit-margin-top="0"
     fit-margin-left="0"
     fit-margin-right="0"
     fit-margin-bottom="0"
     inkscape:window-width="453"
     inkscape:window-height="374"
     inkscape:window-x="535"
     inkscape:window-y="52"
     inkscape:window-maximized="0" />
  <metadata
     id="metadata3117">
    <rdf:RDF>
      <cc:Work
         rdf:about="">
        <dc:format>image/svg+xml</dc:format>
        <dc:type
           rdf:resource="http://purl.org/dc/dcmitype/StillImage" />
        <dc:title></dc:title>
      </cc:Work>
    </rdf:RDF>
  </metadata>
  <g
     inkscape:label="Layer 1"
     inkscape:groupmode="layer"
     id="layer1"
     transform="translate(-246.44736,-403.80954)">
    <g
       transform="translate(161.71701,279.91155)"
       id="g3035">
      <rect
         y="123.89799"
         x="84.730347"
         height="257.10529"
         width="257.10529"
         id="rect2985"
         style="fill:#71c837;fill-opacity:1;stroke:none" />
      <g
         id="g3657"
         transform="matrix(0.92393552,0,0,-0.92393552,70.468765,910.49727)">
        <path
           id="path208"
           style="fill:#b7ccd8;fill-opacity:1;fill-rule:evenodd;stroke:none"
           d="m 249.4638,620.4336 c 0.3164,0.2758 1.0146,1.1475 1.1603,1.5934 0.0966,-0.2478 0.1442,-0.7132 0.4124,-0.7861 1.1605,1.4026 0.1412,1.6206 1.5276,0.3272 0.119,-0.1117 0.0859,-0.0978 0.1667,-0.0873 0.0538,0.2613 0.83,1.3189 1.0533,1.3399 0.0995,-0.1735 0.3595,-0.6353 0.474,-0.7793 0.1828,0 1.082,1.2093 1.36,1.2328 0.0519,-0.3693 0.1664,-0.6437 0.4941,-0.7738 0.1497,0.0904 1.2898,1.2869 1.66,1.2869 0.0876,-0.4263 0.2041,-0.4238 0.4065,-0.7061 0.5139,0 1.7047,2.4375 2.2076,0.5034 0.1074,-0.1034 0.1123,-0.1326 0.14,-0.1825 0.095,0 0.9355,0.9351 1.0483,1.1063 0.6758,0 0.2066,-2.2175 1.5202,-0.7064 0.0646,0.0737 0.1655,0.112 0.2721,0.205 l 0.1211,-0.205 c 0.1343,-0.2287 0.2106,-0.5176 0.4589,-0.6613 0.2568,0.1335 1.0681,0.7688 1.3476,0.6401 0.0635,-0.2775 0.3073,-0.6608 0.3472,-0.8524 0.3447,-0.1199 0.891,0.6285 1.5733,0.7863 0.4399,-3.0055 1.597,-0.278 2.8077,-0.6536 -0.4422,-3.3857 0.6511,-0.1571 1.9479,-0.773 -0.0411,-0.2282 -0.0209,-0.4992 -0.0209,-0.7348 0.2024,0.0264 0.9317,0.2378 0.9459,0.2336 0.5712,-2.41 0.0677,-0.2945 1.887,-0.5669 0.0187,-0.1197 -0.6415,-0.6784 -0.4688,-1.103 0.3883,-0.0561 1.3391,0.1205 1.5565,-0.2764 -0.3274,-0.6803 -0.3994,-1.0375 -0.3994,-1.7277 0.6454,0 1.2044,0.0802 1.7594,0.0802 0.0173,-0.1981 -0.1553,-0.3911 -0.2523,-0.5601 0.182,-0.4419 1.224,0.3016 1.912,0.1321 -0.2908,-0.8921 -0.2795,-1.2166 -0.7101,-2.092 0.0726,0 1.7482,0.5664 2.0271,0.3994 0,-0.142 -0.0119,-0.1244 -0.1536,-0.1465 -0.1599,-0.4366 -1.1319,-1.3751 -1.1605,-1.6739 0.5913,-0.0757 0.5507,-0.1598 0.9864,-0.2602 0.1247,-0.2693 -0.5122,-0.7075 -0.839,-1.387 0.3378,-0.0983 2.2186,-0.2531 2.6725,-0.2531 0.0439,-0.5207 -1.6498,-0.8669 -1.4267,-1.3473 0.3441,-0.0788 1.4454,-0.2259 1.58,-0.2668 -0.0527,-0.4036 -1.0817,-1.315 -1.4338,-1.5077 0,-0.0848 -0.0107,-0.1372 0,-0.2194 0.7918,-0.303 1.7983,-0.3595 2.6476,-0.4266 -0.1712,-0.2858 -1.9471,-2.0282 -1.8411,-2.3006 0.5032,-0.1163 2.469,-0.2903 2.6685,-0.5808 l -0.206,-0.0868 c -1.0211,-0.4311 -1.7567,-0.9728 -2.7156,-1.493 0.3466,-0.1335 2.0571,-0.3538 2.1815,-0.5465 -0.3909,-0.1315 -0.9584,-0.2563 -1.3844,-0.3773 -0.0873,-0.1457 -0.0451,0.0264 -0.0635,-0.1307 0.3095,-0.2764 1.0987,-2.1356 1.1129,-2.141 -0.1307,-0.085 -2.1062,-0.267 -2.617,-0.2588 0.1704,-0.2594 0.9417,-0.9757 1.3096,-1.5279 -0.5576,0.0641 -1.0236,-0.0734 -1.4122,-0.11 0,-0.7012 0.6449,-1.8073 0.5732,-2.1571 l -0.22,0.0666 c -0.3005,0.0907 -1.1273,0.2707 -1.4539,0.3594 -0.3152,-0.7625 0.7004,-1.9678 -0.6534,-1.1633 -0.0451,-0.4513 -0.0737,-2.4863 -0.093,-2.5832 -0.1709,0 -1.1695,0.8067 -1.4144,0.8733 -0.0675,-0.2344 0.608,-1.8788 0.7466,-2.5268 0.0502,-0.2327 0.0496,-0.1238 -0.0136,-0.2778 -0.2412,-0.011 -0.6262,0.1715 -0.8116,0.2245 l -0.0198,0.1891 -0.003,0.0281 -0.0187,0.1726 -0.006,0.0482 -0.008,0.0683 -0.0145,0.1216 -0.005,0.0343 -0.0164,0.1355 -0.0119,0.0924 -0.006,0.0431 -0.0213,0.1607 -0.007,0.0496 -0.0215,0.1545 -0.008,0.0559 -0.0111,0.0759 -0.0235,0.1602 -0.008,0.0558 -0.0272,0.1846 -0.006,0.0334 -0.0329,0.2095 -10e-4,0.0113 -0.036,0.2234 -6e-4,0.0102 -0.0363,0.2154 -0.007,0.0349 -0.032,0.1936 -0.01,0.0578 -0.0298,0.1724 -0.0148,0.0819 -0.0266,0.1514 -0.0181,0.1066 -0.0236,0.1287 -0.0235,0.1318 -0.0193,0.106 -0.004,0.0218 -0.0394,0.2188 -0.0349,0.1823 -0.0108,0.0595 -0.0391,0.2095 -0.007,0.0349 -0.0448,0.2367 -0.002,0.011 -0.0474,0.2489 -0.003,0.0139 -0.0459,0.237 -0.008,0.0391 -0.0414,0.2149 -0.0122,0.0654 -0.0374,0.1897 -0.0507,0.2582 -0.0244,0.1199 -0.0275,0.1401 -0.0516,0.2619 -0.0346,0.1754 -0.0181,0.0891 -0.04,0.2035 -0.0133,0.0626 -0.0456,0.2322 -0.008,0.0351 -0.0516,0.2625 -0.002,0.008 0,9e-4 c 0.0298,0.1567 0.0468,0.3186 0.0468,0.4839 l 0,3.8182 c 0,0.9349 -0.5128,1.7567 -1.271,2.196 l -0.0131,0.0786 -0.0133,0.079 -0.0136,0.0788 -0.002,0.0153 -0.0105,0.0638 -0.0125,0.0794 -0.0136,0.078 -0.013,0.0807 -0.006,0.0417 -0.006,0.0371 -0.0133,0.0803 -0.013,0.0788 -0.0125,0.0793 -0.0111,0.0698 -8e-4,0.0102 -0.0128,0.0796 -0.0255,0.1605 -0.013,0.0799 -0.003,0.0173 -0.009,0.0626 -0.0128,0.0803 -0.0127,0.0802 -0.0125,0.0813 -0.007,0.0451 -0.006,0.0352 -0.0125,0.0807 -0.0218,0.1457 -0.002,0.0156 -0.0107,0.0735 -0.001,0.008 -0.0116,0.0811 -0.0127,0.0808 -0.0119,0.0808 -0.0122,0.0819 -0.002,0.0209 -0.01,0.0604 -0.0113,0.0819 -0.0303,0.2115 -0.004,0.0329 -0.011,0.0808 -0.0131,0.0822 -0.0107,0.0828 -0.0108,0.0771 -9e-4,0.004 -0.0113,0.0831 -0.0113,0.0816 -0.0111,0.0825 -0.0102,0.0822 -0.003,0.0238 -0.008,0.0587 -0.0105,0.0825 -0.0122,0.083 -0.0105,0.0822 -0.006,0.0519 -0.004,0.0312 -0.0108,0.083 -0.0105,0.0825 -0.011,0.0837 -0.01,0.0802 -3e-4,0.003 -0.01,0.0825 -0.0209,0.1664 -0.0111,0.0839 -0.002,0.0261 -0.007,0.0561 -0.01,0.0847 -0.0201,0.1676 -0.007,0.0547 -0.003,0.0286 -0.009,0.0845 -0.0297,0.2514 c -0.5755,4.7945 -8.7897,7.8477 -12.7934,7.8477 -3.6995,0 -11.2099,-2.4312 -12.054,-7.6717 l -0.0105,-0.0875 -0.009,-0.0879 -0.0102,-0.0879 -0.0102,-0.087 -5e-4,-0.007 -0.009,-0.0802 -0.01,-0.087 -0.0105,-0.0876 -0.0105,-0.0871 -9e-4,-0.0133 -0.008,-0.0731 -0.0105,-0.0868 -0.0107,-0.0864 -0.0103,-0.0865 -0.002,-0.0207 -0.007,-0.066 -0.0111,-0.0851 -0.01,-0.0867 -0.0102,-0.0864 -0.003,-0.0264 -0.007,-0.0587 -0.0108,-0.0856 -0.0108,-0.085 -0.0102,-0.0859 -0.004,-0.0332 -0.007,-0.051 -0.0207,-0.1701 -0.0107,-0.0847 -0.005,-0.0394 -0.006,-0.0446 -0.0105,-0.0847 -0.0108,-0.0848 -0.011,-0.0836 -0.005,-0.0462 -0.005,-0.038 -0.01,-0.0836 -0.0116,-0.0836 -0.0107,-0.0839 -0.007,-0.0513 -0.003,-0.0321 -0.0105,-0.0825 -0.0105,-0.0833 -0.0108,-0.0822 -0.008,-0.0584 -0.003,-0.0249 -0.0113,-0.0828 -0.011,-0.0828 -0.0103,-0.0827 -0.009,-0.0638 -0.002,-0.0182 -0.0108,-0.0822 -0.0113,-0.0825 -0.0105,-0.081 -0.01,-0.0709 -10e-4,-0.0113 -0.0105,-0.082 -0.0116,-0.0805 -0.011,-0.0813 -0.009,-0.0754 -0.002,-0.006 -0.0215,-0.1621 -0.0119,-0.0805 -0.0102,-0.0802 0,-3e-4 -0.0113,-0.0802 -0.0108,-0.0805 -0.0114,-0.0797 -0.0107,-0.0805 -9e-4,-0.007 -0.0107,-0.0726 -0.0105,-0.0799 -0.0448,-0.3172 -0.0111,-0.0794 c -0.8093,-0.4254 -1.364,-1.2741 -1.364,-2.2473 l 0,-3.8182 c 0,-0.4068 0.0975,-0.7926 0.2698,-1.1345 l -0.0337,-0.216 -0.002,-0.0127 -0.0345,-0.2265 -0.004,-0.0247 -0.0311,-0.1998 -0.009,-0.0612 -0.0247,-0.1627 -0.0144,-0.0967 -0.0193,-0.1242 -0.0199,-0.1326 -0.0127,-0.0871 -0.0252,-0.1678 -0.008,-0.051 -0.0294,-0.2018 -0.001,-0.015 -0.032,-0.2158 -0.003,-0.0198 -0.0275,-0.193 -0.008,-0.0553 -0.0224,-0.1565 -0.0131,-0.0896 -0.0161,-0.1216 -0.0184,-0.1227 -0.0117,-0.0859 -0.0212,-0.1553 -0.008,-0.0525 -0.0258,-0.1882 -0.002,-0.0167 -0.0278,-0.2041 -0.002,-0.017 -0.0249,-0.1871 -0.007,-0.0488 -0.019,-0.1505 -0.0108,-0.0822 -0.0158,-0.1176 -0.0136,-0.1131 -0.0108,-0.0848 -0.0182,-0.1448 -0.006,-0.0513 -0.021,-0.1761 -0.002,-0.0192 -0.0229,-0.1928 -0.001,-0.0128 -0.0204,-0.1777 -0.005,-0.0448 -0.0159,-0.1465 -0.008,-0.074 c -0.0159,-0.1466 -0.0315,-0.2914 -0.0457,-0.4351 -0.2194,-0.0366 -0.5782,-0.1001 -1.1293,-0.1752 l -0.1593,0.007 c -0.4924,0.0201 0.4002,0.7894 0.4263,1.3595 -0.2146,0 -1.5063,0.1258 -1.6662,0.2208 0.3646,0.2735 1.3456,0.5757 1.3598,1.0562 -0.4374,0.0518 -2.6152,0.3231 -2.7604,0.3231 -0.0399,0.4632 1.1736,1.4006 1.5928,1.5282 -0.8133,0.0734 -1.6452,0.3608 -2.4298,0.6032 0.007,0.1627 1.5837,1.1679 1.9295,1.6962 -0.1335,0.0355 -1.4667,0.3357 -1.4933,0.3348 -0.0683,-0.006 -0.2449,0.0791 -0.5604,0.1191 -0.0119,0.3517 1.2736,1.2285 1.3212,1.4907 -0.426,0.1525 -2.2666,0.7974 -2.4276,0.9539 0.0182,0.2755 1.7153,1.5273 1.9868,1.597 -0.7656,0 -1.2614,-0.057 -2.0761,0.1667 -0.0773,0.4218 1.4347,0.7007 1.7759,0.837 -0.2228,0.2095 -1.4879,0.9162 -1.6409,1.1492 0.1394,0.2384 0.8413,0.3266 0.9544,0.4947 -0.4793,-0.1253 -1.9746,0.8064 -2.2544,0.9368 0.2931,0.1894 1.4332,0.252 1.4009,0.6574 -0.3994,-0.038 -1.9579,1.3294 -1.9466,1.7597 0.612,0 1.3652,0.0799 1.8666,0.0799 -0.002,0.007 -1.4332,2.075 -1.4332,2.2269 2.4189,0.4533 0.9389,-0.7681 1.5206,2.8545 0.066,0.0216 1.254,-0.7704 1.5865,-0.6664 0.1199,1.1585 -0.1607,2.3749 0.1072,3.5073 0.0155,-0.003 0.9433,-0.7764 1.0267,-0.8464 -0.0899,0.4175 0.085,1.5868 0.0731,1.7266 0.3373,0 1.9429,-0.4309 2.3933,-0.5261 0.085,0.1973 -0.1083,0.9031 0.1012,1.2393 0.7917,0 1.3215,-1.086 1.6597,0.5743 0.0218,0.1091 0.106,0.703 0.1272,0.7064 0.0281,-0.0445 0.8468,-0.9193 0.847,-0.9193 -0.0541,0.2551 0.6667,0.9692 0.8731,1.0057 0,-0.2897 0.1658,-0.2659 0.2407,-0.4799 0.0394,-0.1142 0.0453,-0.1205 0.1598,-0.1599 z m -3.4795,-28.9822 c -0.2633,-0.1117 -0.4904,-0.2036 -0.6015,-0.2262 0.0746,0.7562 0.4303,1.2237 0.7021,1.4935 l -0.002,-0.0204 -0.002,-0.0198 -0.002,-0.0207 -0.002,-0.0201 -0.002,-0.0204 -0.001,-0.0199 -0.002,-0.0204 0,-8e-4 -0.001,-0.0202 -0.002,-0.0198 -0.001,-0.0207 -0.002,-0.0196 -0.001,-0.0212 -0.003,-0.0196 -0.001,-0.0201 -0.001,-0.0199 -0.002,-0.0189 0,-0.002 -10e-4,-0.0196 -0.002,-0.0204 -0.003,-0.04 -0.002,-0.0198 -0.005,-0.0596 -9e-4,-0.0184 -0.002,-0.0224 -0.002,-0.0201 -0.007,-0.0794 -6e-4,-0.0198 -0.003,-0.0196 -0.001,-0.0164 -3e-4,-0.004 -0.007,-0.0984 -0.002,-0.0195 -0.001,-0.0187 -0.002,-0.0207 -8e-4,-0.0156 -9e-4,-0.004 -0.001,-0.0198 -0.002,-0.0199 -0.001,-0.019 -0.001,-0.0187 -0.002,-0.0195 -10e-4,-0.0193 -6e-4,-0.0201 -0.002,-0.0193 -8e-4,-0.0145 -9e-4,-0.005 -8e-4,-0.0198 -0.003,-0.038 -3e-4,-0.0201 -0.003,-0.0383 -0.001,-0.0195 -0.001,-0.0185 -3e-4,-0.0141 -8e-4,-0.005 -10e-4,-0.0196 -0.002,-0.0193 -9e-4,-0.0192 z"
           inkscape:connector-curvature="0" />
        <path
           id="path210"
           style="fill:#ffffff;fill-opacity:1;fill-rule:evenodd;stroke:none"
           d="m 273.0132,604.4117 -8.5172,0 c -0.3427,0 -0.6228,-0.2801 -0.6228,-0.6228 l 0,-4.036 c 0,-0.3427 0.2801,-0.6228 0.6228,-0.6228 l 8.5172,0 c 0.3427,0 0.6228,0.2801 0.6228,0.6228 l 0,4.036 c 0,0.3427 -0.2801,0.6228 -0.6228,0.6228"
           inkscape:connector-curvature="0" />
        <path
           id="path212"
           style="fill:#ffffff;fill-opacity:1;fill-rule:evenodd;stroke:none"
           d="m 249.1254,604.4117 8.5172,0 c 0.3428,0 0.6228,-0.2801 0.6228,-0.6228 l 0,-4.036 c 0,-0.3427 -0.28,-0.6228 -0.6228,-0.6228 l -8.5172,0 c -0.3427,0 -0.6228,0.2801 -0.6228,0.6228 l 0,4.036 c 0,0.3427 0.2801,0.6228 0.6228,0.6228"
           inkscape:connector-curvature="0" />
        <path
           id="path214"
           style="fill:#444443;fill-opacity:1;fill-rule:evenodd;stroke:none"
           d="m 248.6625,611.2689 c 0.8441,5.2405 8.3545,7.6717 12.054,7.6717 4.0037,0 12.2179,-3.0532 12.7934,-7.8477 0.2024,-1.7949 0.4589,-3.539 0.7407,-5.2169 0.7582,-0.4393 1.271,-1.2611 1.271,-2.196 l 0,-3.8182 c 0,-0.1653 -0.017,-0.3272 -0.0468,-0.4848 0.1798,-0.9014 0.3532,-1.7702 0.5134,-2.6027 l 0,0 10e-4,-0.006 c 0.3527,-1.8323 0.6398,-3.4855 0.7832,-4.9221 0.1854,-0.053 0.5704,-0.2355 0.8116,-0.2245 0.0632,0.154 0.0638,0.0451 0.0136,0.2778 -0.1386,0.648 -0.8141,2.2924 -0.7466,2.5268 0.2449,-0.0666 1.2435,-0.8733 1.4144,-0.8733 0.0193,0.0969 0.0479,2.1319 0.093,2.5832 1.3538,-0.8045 0.3382,0.4008 0.6534,1.1633 0.3266,-0.0887 1.1534,-0.2687 1.4539,-0.3594 l 0.22,-0.0666 c 0.0717,0.3498 -0.5732,1.4559 -0.5732,2.1571 0.3886,0.0366 0.8546,0.1741 1.4122,0.11 -0.3679,0.5522 -1.1392,1.2685 -1.3096,1.5279 0.5108,-0.008 2.4863,0.1738 2.617,0.2588 -0.0142,0.005 -0.8034,1.8646 -1.1129,2.141 0.0184,0.1571 -0.0238,-0.015 0.0635,0.1307 0.426,0.121 0.9935,0.2458 1.3844,0.3773 -0.1244,0.1927 -1.8349,0.413 -2.1815,0.5465 0.9589,0.5202 1.6945,1.0619 2.7156,1.493 l 0.206,0.0868 c -0.1995,0.2905 -2.1653,0.4645 -2.6685,0.5808 -0.106,0.2724 1.6699,2.0148 1.8411,2.3006 -0.8493,0.0671 -1.8558,0.1236 -2.6476,0.4266 -0.0107,0.0822 0,0.1346 0,0.2194 0.3521,0.1927 1.3811,1.1041 1.4338,1.5077 -0.1346,0.0409 -1.2359,0.188 -1.58,0.2668 -0.2231,0.4804 1.4706,0.8266 1.4267,1.3473 -0.4539,0 -2.3347,0.1548 -2.6725,0.2531 0.3268,0.6795 0.9637,1.1177 0.839,1.387 -0.4357,0.1004 -0.3951,0.1845 -0.9864,0.2602 0.0286,0.2988 1.0006,1.2373 1.1605,1.6739 0.1417,0.0221 0.1536,0.005 0.1536,0.1465 -0.2789,0.167 -1.9545,-0.3994 -2.0271,-0.3994 0.4306,0.8754 0.4193,1.1999 0.7101,2.092 -0.688,0.1695 -1.73,-0.574 -1.912,-0.1321 0.097,0.169 0.2696,0.362 0.2523,0.5601 -0.555,0 -1.114,-0.0802 -1.7594,-0.0802 0,0.6902 0.072,1.0474 0.3994,1.7277 -0.2174,0.3969 -1.1682,0.2203 -1.5565,0.2764 -0.1727,0.4246 0.4875,0.9833 0.4688,1.103 -1.8193,0.2724 -1.3158,-1.8431 -1.887,0.5669 -0.0142,0.004 -0.7435,-0.2072 -0.9459,-0.2336 0,0.2356 -0.0202,0.5066 0.0209,0.7348 -1.2968,0.6159 -2.3901,-2.6127 -1.9479,0.773 -1.2107,0.3756 -2.3678,-2.3519 -2.8077,0.6536 -0.6823,-0.1578 -1.2286,-0.9062 -1.5733,-0.7863 -0.0399,0.1916 -0.2837,0.5749 -0.3472,0.8524 -0.2795,0.1287 -1.0908,-0.5066 -1.3476,-0.6401 -0.2483,0.1437 -0.3246,0.4326 -0.4589,0.6613 l -0.1211,0.205 c -0.1066,-0.093 -0.2075,-0.1313 -0.2721,-0.205 -1.3136,-1.5111 -0.8444,0.7064 -1.5202,0.7064 -0.1128,-0.1712 -0.9533,-1.1063 -1.0483,-1.1063 -0.0277,0.0499 -0.0326,0.0791 -0.14,0.1825 -0.5029,1.9341 -1.6937,-0.5034 -2.2076,-0.5034 -0.2024,0.2823 -0.3189,0.2798 -0.4065,0.7061 -0.3702,0 -1.5103,-1.1965 -1.66,-1.2869 -0.3277,0.1301 -0.4422,0.4045 -0.4941,0.7738 -0.278,-0.0235 -1.1772,-1.2328 -1.36,-1.2328 -0.1145,0.144 -0.3745,0.6058 -0.474,0.7793 -0.2233,-0.021 -0.9995,-1.0786 -1.0533,-1.3399 -0.0808,-0.0105 -0.0477,-0.0244 -0.1667,0.0873 -1.3864,1.2934 -0.3671,1.0754 -1.5276,-0.3272 -0.2682,0.0729 -0.3158,0.5383 -0.4124,0.7861 -0.1457,-0.4459 -0.8439,-1.3176 -1.1603,-1.5934 -0.1145,0.0394 -0.1204,0.0457 -0.1598,0.1599 -0.0749,0.214 -0.2407,0.1902 -0.2407,0.4799 -0.2064,-0.0365 -0.9272,-0.7506 -0.8731,-1.0057 -2e-4,0 -0.8189,0.8748 -0.847,0.9193 -0.0212,-0.003 -0.1054,-0.5973 -0.1272,-0.7064 -0.3382,-1.6603 -0.868,-0.5743 -1.6597,-0.5743 -0.2095,-0.3362 -0.0162,-1.042 -0.1012,-1.2393 -0.4504,0.0952 -2.056,0.5261 -2.3933,0.5261 0.0119,-0.1398 -0.163,-1.3091 -0.0731,-1.7266 -0.0834,0.07 -1.0112,0.8436 -1.0267,0.8464 -0.2679,-1.1324 0.0127,-2.3488 -0.1072,-3.5073 -0.3325,-0.104 -1.5205,0.688 -1.5865,0.6664 -0.5817,-3.6226 0.8983,-2.4012 -1.5206,-2.8545 0,-0.1519 1.4313,-2.2198 1.4332,-2.2269 -0.5014,0 -1.2546,-0.0799 -1.8666,-0.0799 -0.0113,-0.4303 1.5472,-1.7977 1.9466,-1.7597 0.0323,-0.4054 -1.1078,-0.468 -1.4009,-0.6574 0.2798,-0.1304 1.7751,-1.0621 2.2544,-0.9368 -0.1131,-0.1681 -0.815,-0.2563 -0.9544,-0.4947 0.153,-0.233 1.4181,-0.9397 1.6409,-1.1492 -0.3412,-0.1363 -1.8532,-0.4152 -1.7759,-0.837 0.8147,-0.2237 1.3105,-0.1667 2.0761,-0.1667 -0.2715,-0.0697 -1.9686,-1.3215 -1.9868,-1.597 0.161,-0.1565 2.0016,-0.8014 2.4276,-0.9539 -0.0476,-0.2622 -1.3331,-1.139 -1.3212,-1.4907 0.3155,-0.04 0.4921,-0.1256 0.5604,-0.1191 0.0266,9e-4 1.3598,-0.2993 1.4933,-0.3348 -0.3458,-0.5283 -1.923,-1.5335 -1.9295,-1.6962 0.7846,-0.2424 1.6165,-0.5298 2.4298,-0.6032 -0.4192,-0.1276 -1.6327,-1.065 -1.5928,-1.5282 0.1452,0 2.323,-0.2713 2.7604,-0.3231 -0.0142,-0.4805 -0.9952,-0.7827 -1.3598,-1.0562 0.1599,-0.095 1.4516,-0.2208 1.6662,-0.2208 -0.0261,-0.5701 -0.9187,-1.3394 -0.4263,-1.3595 l 0.1593,-0.007 c 0.5511,0.0751 0.9099,0.1386 1.1293,0.1752 0.1281,1.2784 0.3158,2.6668 0.538,4.17 l 0.008,0.0476 3e-4,-5e-4 c 0.0728,0.4935 0.1511,0.9986 0.2301,1.5159 -0.1723,0.3419 -0.2698,0.7277 -0.2698,1.1345 l 0,3.8182 c 0,0.9732 0.5547,1.8219 1.364,2.2473 0.239,1.685 0.4709,3.4637 0.6812,5.3416 z m 27.877,-23.6185 c -0.0776,-0.2129 -0.1684,-0.4088 -0.2749,-0.5882 -3.9629,-5.4533 -10.0746,-6.7499 -15.2235,-8.6238 -5.1009,1.828 -14.1035,5.1071 -14.9156,8.833 -0.0264,0.1565 -0.0508,0.3163 -0.0717,0.4788 -0.3952,0.2647 -0.69,0.6261 -0.8714,1.0332 -1.0585,0.085 -1.9775,0.8586 -2.2008,1.9517 -0.0136,0.0686 -0.0238,0.1363 -0.0326,0.204 -0.4031,0.3362 -0.6259,0.813 -0.6993,1.4128 -0.4363,0.2818 -0.7549,0.6823 -0.9366,1.1347 -0.9292,0.351 -1.59,1.2479 -1.59,2.2995 l 3e-4,0.0386 0,0.01 0.001,0.0196 c 0.001,0.0697 0.005,0.1394 0.0121,0.2089 -0.6355,0.5516 -0.9595,1.4094 -0.8121,2.2688 0.0318,0.203 0.0834,0.3858 0.1522,0.5536 -0.1837,0.332 -0.2908,0.7098 -0.3041,1.1061 l -6e-4,0 c -0.005,0.1687 0.003,0.328 0.0235,0.4799 -0.163,0.0975 -0.2987,0.1925 -0.3906,0.2829 -0.5357,0.5219 -0.7821,1.2291 -0.7367,1.9208 l -0.002,0 c 0.005,0.0669 0.0122,0.134 0.0236,0.2007 0.0215,0.1377 0.0527,0.2735 0.0969,0.4073 -0.0882,0.1979 -0.1502,0.409 -0.1834,0.6262 -0.1086,0.6551 -0.0363,1.1775 0.1539,1.5996 -1.0582,0.5323 -1.5687,1.7382 -1.2532,2.8493 -0.3418,0.4989 -0.5833,1.0276 -0.6284,1.5084 -0.003,0.0453 -0.006,0.0895 -0.008,0.1349 l -0.001,0 -0.001,0.0232 c -0.0221,0.6429 0.2052,1.2371 0.5956,1.6892 -0.1061,0.2718 -0.1715,0.5145 -0.1715,0.7038 0,0.9893 0.5856,1.8437 1.4283,2.2329 0.029,0.2999 0.0709,0.6335 0.1307,1.006 0.1423,0.9014 0.7617,1.6101 1.5596,1.91 0.0238,0.3563 0.0726,0.722 0.163,1.1032 0.1885,0.8079 0.7546,1.4287 1.4684,1.7187 0.4042,0.5848 1.0573,0.9907 1.8207,1.0536 0.0674,0.005 0.1346,0.008 0.2018,0.008 l 0,9e-4 c 0.0405,0 0.0853,-9e-4 0.1327,-0.005 0.0788,-0.004 0.1581,-0.0122 0.2358,-0.0241 0.1003,-0.0128 0.2095,-0.0304 0.3234,-0.0505 0.3756,0.4073 0.8697,0.6659 1.3961,0.7537 0.2625,0.5919 0.7557,1.1036 1.7804,1.2816 0.4079,0.0689 0.8102,0.0326 1.179,-0.0876 0.1542,0.0714 0.3041,0.125 0.4416,0.1539 0.0312,0.007 0.0643,0.0128 0.0961,0.0179 l -6e-4,0.002 0.004,2e-4 0.006,6e-4 c 0.3711,0.4989 0.9196,0.8348 1.5219,0.9465 0.2407,0.1582 0.567,0.2832 1.0338,0.3827 l -2e-4,0.003 c 0.5669,0.1216 0.964,0.1372 1.2818,0.0595 0.3399,0.2022 0.7024,0.3402 1.0692,0.3745 0.1882,0.0167 0.3728,0.0113 0.5528,-0.0128 0.3653,0.2492 0.786,0.4318 1.2999,0.476 0.241,0.0195 0.4765,0.004 0.7019,-0.0428 0.5023,0.3231 1.0667,0.5655 1.6543,0.5655 0.106,0 0.2106,-0.007 0.3141,-0.0198 0.2866,0.195 0.6151,0.3588 1.0111,0.4623 0.5493,0.1411 1.0655,0.1831 1.5347,0.0876 0.299,0.1233 0.6196,0.1868 0.9425,0.1873 l 0,0.003 c 0.8424,0 1.4054,-0.1965 1.7986,-0.5077 0.3903,-0.002 0.7795,-0.0961 1.1313,-0.2801 0.5425,0.1392 1.1508,0.1372 1.8153,-0.1692 0.1094,0.036 0.2251,0.0689 0.3475,0.0964 0.8408,0.1927 1.6807,-0.0732 2.2572,-0.6319 0.5111,0.1372 1.1016,0.1525 1.8176,-0.0697 0.3558,-0.11 0.6684,-0.2928 0.9281,-0.5275 0.4065,-0.0233 0.8529,-0.1355 1.3473,-0.3708 0.2063,-0.0972 0.3934,-0.2202 0.5584,-0.3628 l 0.0408,-0.0125 c 0.3736,-0.0612 0.8036,-0.4252 0.8371,-0.438 1.5576,-0.0634 2.1875,-0.5572 2.6512,-1.69 0.0743,-0.0459 0.9125,-0.4816 1.1552,-1.5908 0.1397,-0.0405 0.1856,-0.0986 0.3356,-0.1681 0.2659,-0.0541 2.1662,0.1358 2.7357,-2.0038 0.9984,-0.4104 1.3252,-1.5057 1.3258,-2.1671 l 0.008,0 c 0,-0.3688 -0.005,-0.6774 -0.0227,-0.9388 0.0445,-0.1845 0.0868,-0.3747 0.1296,-0.5638 0.7999,-0.383 1.3603,-1.1843 1.3969,-2.12 0.017,-0.2886 0.003,-0.5457 -0.0383,-0.7756 0.1262,-0.3036 0.1913,-0.6333 0.1862,-0.97 0.7847,-0.4581 1.2841,-1.3363 1.2113,-2.3037 -0.0187,-0.2588 -0.078,-0.5052 -0.1704,-0.7334 0.2231,-0.1615 0.4181,-0.3532 0.576,-0.5822 0.6883,-1.0088 0.5216,-2.3485 -0.3384,-3.1629 0.0975,-0.6857 -0.1004,-1.3918 -0.5536,-1.9281 0.2741,-0.5678 0.3305,-1.241 0.1046,-1.8822 -0.1868,-0.529 -0.5355,-0.953 -0.9709,-1.2376 l 10e-4,-0.002 c -0.0238,-0.0156 -0.0493,-0.0301 -0.0751,-0.0459 -0.0524,-0.0312 -0.106,-0.0604 -0.159,-0.0876 -0.0927,-0.5511 -0.3708,-1.0701 -0.8173,-1.4528 0.0346,-0.2843 0.0292,-0.5825 -0.0405,-0.9116 -0.2157,-1.0375 -1.0576,-1.7847 -2.0489,-1.9279 -0.0966,-0.1451 -0.197,-0.2772 -0.3019,-0.3957 -0.0122,-0.4365 -0.0283,-0.7897 -0.0688,-0.9876 -0.0908,-0.4453 -0.2968,-0.8365 -0.5806,-1.1505 0.005,-0.0868 0.005,-0.1857 -0.002,-0.3144 -0.002,-0.0315 -0.004,-0.0627 -0.007,-0.0924 -0.0292,-0.4093 -0.1018,-0.5922 -0.2257,-0.8303 -0.172,-0.4121 -0.4433,-0.7529 -0.7755,-1.0066 -0.007,-0.0399 -0.0159,-0.0808 -0.0258,-0.1207 -0.2639,-1.1345 -1.2748,-1.8995 -2.3905,-1.899 l 0,-0.002 c -0.0402,0 -0.0796,5e-4 -0.1182,0.003 z m -30.5606,3.6927 c 0.0247,0.4436 0.0615,0.9014 0.106,1.3756 -0.2718,-0.2698 -0.6275,-0.7373 -0.7021,-1.4935 0.1111,0.0226 0.3382,0.1145 0.6015,0.2262 l -0.005,-0.1083 z m 10.1733,18.233 c 0.4932,0.1196 0.9898,-0.1828 1.1095,-0.6769 0.1187,-0.493 -0.1843,-0.989 -0.6781,-1.1084 -1.2588,-0.3053 -2.1574,-0.6077 -2.9829,-1.0607 -0.2738,-0.1511 -0.5437,-0.3192 -0.8192,-0.5133 l 4.8322,0 c 1.3955,0 2.5373,-1.1407 2.5373,-2.5368 l 0,-0.7106 c 0.275,0.1465 0.5681,0.2259 0.868,0.2259 0.3365,0 0.6636,-0.0986 0.9689,-0.284 l 0,0.7687 c 0,1.3961 1.1415,2.5368 2.5375,2.5368 l 4.5618,0 c -0.2763,0.1941 -0.5456,0.3622 -0.8203,0.5133 -0.8243,0.453 -1.7229,0.7554 -2.9832,1.0607 -0.4926,0.1194 -0.7962,0.6154 -0.6763,1.1084 0.119,0.4941 0.6148,0.7965 1.1092,0.6769 1.4261,-0.3438 2.4582,-0.6959 3.437,-1.2331 0.7203,-0.3957 1.3946,-0.8824 2.1605,-1.5315 -0.1681,1.0956 -0.318,2.2042 -0.4368,3.3122 -0.4705,3.8812 -6.8887,6.0514 -10.1588,6.0514 -3.0251,0 -8.5722,-1.7469 -9.3549,-5.4671 -0.1304,-1.2121 -0.2798,-2.4115 -0.4376,-3.589 0.6168,0.4989 1.1863,0.8935 1.7892,1.224 0.9788,0.5372 2.0106,0.8893 3.437,1.2331 z m 16.9526,-12.2491 c -0.0403,-10e-4 -0.0802,-0.002 -0.1199,-0.002 l -8.4595,0 c -1.396,0 -2.5375,1.1418 -2.5375,2.5368 l 0,0.4067 c -0.0808,0.1242 -0.1701,0.233 -0.2676,0.3235 -0.2069,0.1902 -0.4487,0.2962 -0.7013,0.2962 -0.2716,0 -0.5295,-0.123 -0.7452,-0.3399 -0.0428,-0.0442 -0.0834,-0.0898 -0.1228,-0.1397 l 0,-0.5468 c 0,-1.395 -1.1418,-2.5368 -2.5373,-2.5368 l -8.1924,0 c -0.6094,-3.9163 -1.0131,-7.1118 -0.7135,-9.0728 0.6872,-2.8749 8.1528,-5.3144 12.3203,-6.8692 4.2074,1.5936 9.591,2.643 12.8052,6.986 0.7231,1.3399 0.1361,4.6774 -0.7285,8.958 z m -8.6091,7.0847 7.2167,0 1.3005,0 c 0.3419,0 0.6228,-0.2804 0.6228,-0.6234 l 0,-4.0351 c 0,-0.343 -0.2809,-0.6231 -0.6228,-0.6231 l -0.2752,0 -8.242,0 c -0.3419,0 -0.6222,0.2801 -0.6222,0.6231 l 0,4.0351 c 0,0.343 0.2803,0.6234 0.6222,0.6234 z m -13.9575,0 7.1044,0 c 0.3428,0 0.6225,-0.2804 0.6225,-0.6234 l 0,-4.0351 c 0,-0.343 -0.2797,-0.6231 -0.6225,-0.6231 l -7.9353,0 -0.5822,0 c -0.3413,0 -0.6222,0.2801 -0.6222,0.6231 l 0,4.0351 c 0,0.343 0.2809,0.6234 0.6222,0.6234 l 1.4131,0 z"
           inkscape:connector-curvature="0" />
        <path
           id="path216"
           style="fill:#ffffff;fill-opacity:1;fill-rule:evenodd;stroke:none"
           d="m 241.2726,620.6771 c -0.0315,0.003 -0.0593,0.005 -0.082,0.005 0.001,-0.0192 0,-0.0535 -0.003,-0.1006 -0.0524,-0.0618 -0.1023,-0.1264 -0.1482,-0.1933 -0.3841,-0.1565 -0.7263,-0.4088 -0.9893,-0.7348 -0.044,0.0358 -0.0706,0.0567 -0.0737,0.057 -0.0167,-0.0714 -0.0312,-0.144 -0.0442,-0.2165 -0.1656,-0.2435 -0.29,-0.5202 -0.3612,-0.8244 -0.0904,-0.3812 -0.1392,-0.7469 -0.163,-1.1032 -0.5088,-0.1908 -0.9439,-0.5477 -1.2308,-1.0148 -0.0368,0.0173 -0.0612,0.0266 -0.0703,0.0235 l -0.032,-0.2089 c -0.1088,-0.218 -0.1865,-0.4564 -0.2265,-0.7098 -0.0598,-0.3725 -0.1017,-0.7061 -0.1307,-1.006 -0.5326,-0.2461 -0.9623,-0.6772 -1.2064,-1.211 l -0.0822,-0.0141 c 0,-0.0156 0.0128,-0.0474 0.0357,-0.0933 -0.1128,-0.2823 -0.1754,-0.5913 -0.1754,-0.9145 0,-0.1893 0.0654,-0.432 0.1715,-0.7038 -0.2092,-0.2432 -0.3717,-0.525 -0.474,-0.8351 l -0.0357,0 c -6e-4,-0.0241 0.003,-0.0504 0.011,-0.0794 -0.072,-0.2449 -0.1057,-0.5062 -0.0969,-0.7747 l 0.001,-0.0232 0.001,0 c 0.001,-0.0454 0.005,-0.0896 0.008,-0.1349 0.0451,-0.4808 0.2866,-1.0095 0.6284,-1.5084 -0.3155,-1.1111 0.195,-2.317 1.2532,-2.8493 -0.1902,-0.4221 -0.2625,-0.9445 -0.1539,-1.5996 0.0332,-0.2172 0.0952,-0.4283 0.1834,-0.6262 -0.0442,-0.1338 -0.0754,-0.2696 -0.0969,-0.4073 -0.0114,-0.0667 -0.019,-0.1338 -0.0236,-0.2007 l 0.002,0 c -0.0454,-0.6917 0.201,-1.3989 0.7367,-1.9208 0.0919,-0.0904 0.2276,-0.1854 0.3906,-0.2829 -0.0204,-0.1519 -0.0289,-0.3112 -0.0235,-0.4799 l 6e-4,0 c 0.0133,-0.3963 0.1204,-0.7741 0.3041,-1.1061 -0.0688,-0.1678 -0.1204,-0.3506 -0.1522,-0.5536 -0.1474,-0.8594 0.1766,-1.7172 0.8121,-2.2688 -0.008,-0.0763 -0.011,-0.1514 -0.0136,-0.2285 l -3e-4,-0.0482 c 0,-1.0516 0.6608,-1.9485 1.59,-2.2995 0.1817,-0.4524 0.5003,-0.8529 0.9366,-1.1347 0.0734,-0.5998 0.2962,-1.0766 0.6993,-1.4128 0.009,-0.0677 0.019,-0.1354 0.0326,-0.204 0.2233,-1.0931 1.1423,-1.8667 2.2008,-1.9517 0.1814,-0.4071 0.4762,-0.7685 0.8714,-1.0332 0.0209,-0.1625 0.0453,-0.3223 0.0717,-0.4788 0.8121,-3.7259 9.8147,-7.005 14.9156,-8.833 5.1489,1.8739 11.2606,3.1705 15.2235,8.6238 0.1065,0.1794 0.1973,0.3753 0.2749,0.5882 0.0386,-0.003 0.078,-0.003 0.1182,-0.003 l 0,0.002 c 1.1157,-5e-4 2.1266,0.7645 2.3905,1.899 0.01,0.0399 0.0184,0.0808 0.0258,0.1207 0.3322,0.2537 0.6035,0.5945 0.7755,1.0066 0.1239,0.2381 0.1965,0.421 0.2257,0.8303 0.003,0.0297 0.006,0.0609 0.007,0.0924 0.007,0.1287 0.007,0.2276 0.002,0.3144 0.2838,0.314 0.4898,0.7052 0.5806,1.1505 0.0405,0.1979 0.0566,0.5511 0.0688,0.9876 0.1049,0.1185 0.2053,0.2506 0.3019,0.3957 0.9913,0.1432 1.8332,0.8904 2.0489,1.9279 0.0697,0.3291 0.0751,0.6273 0.0405,0.9116 0.4465,0.3827 0.7246,0.9017 0.8173,1.4528 0.053,0.0272 0.1066,0.0564 0.159,0.0876 0.4737,0.2658 0.8651,0.7769 1.0446,1.2852 0.2259,0.6412 0.1695,1.3144 -0.1046,1.8822 0.4532,0.5363 0.6511,1.2424 0.5536,1.9281 0.86,0.8144 1.0267,2.1541 0.3384,3.1629 -0.1579,0.229 -0.3529,0.4207 -0.576,0.5822 0.0924,0.2282 0.1517,0.4746 0.1704,0.7334 0.0728,0.9674 -0.4266,1.8456 -1.2113,2.3037 0.005,0.3367 -0.06,0.6664 -0.1862,0.97 0.0417,0.2299 0.0553,0.487 0.0383,0.7756 -0.0366,0.9357 -0.597,1.737 -1.3969,2.12 -0.0428,0.1891 -0.0851,0.3793 -0.1296,0.5638 0.0173,0.2614 0.0227,0.57 0.0227,0.9388 l -0.008,0 c -6e-4,0.6614 -0.3274,1.7567 -1.3258,2.1671 -0.5695,2.1396 -2.4698,1.9497 -2.7357,2.0038 -0.15,0.0695 -0.1959,0.1276 -0.3356,0.1681 -0.2427,1.1092 -1.0809,1.5449 -1.1552,1.5908 -0.4637,1.1328 -1.0936,1.6266 -2.6512,1.69 -0.0335,0.0128 -0.4635,0.3768 -0.8371,0.438 l -0.0408,0.0125 c -0.165,0.1426 -0.3521,0.2656 -0.5584,0.3628 -0.4944,0.2353 -0.9408,0.3475 -1.3473,0.3708 -0.2597,0.2347 -0.5723,0.4175 -0.9281,0.5275 -0.716,0.2222 -1.3065,0.2069 -1.8176,0.0697 -0.5765,0.5587 -1.4164,0.8246 -2.2572,0.6319 -0.1224,-0.0275 -0.2381,-0.0604 -0.3475,-0.0964 -0.6645,0.3064 -1.2728,0.3084 -1.8153,0.1692 -0.3518,0.184 -0.741,0.2784 -1.1313,0.2801 -0.3932,0.3112 -0.9562,0.5077 -1.7986,0.5077 l 0,-0.003 c -0.3229,-5e-4 -0.6435,-0.064 -0.9425,-0.1873 -0.4692,0.0955 -0.9854,0.0535 -1.5347,-0.0876 -0.396,-0.1035 -0.7245,-0.2673 -1.0111,-0.4623 -0.1035,0.0127 -0.2081,0.0198 -0.3141,0.0198 -0.5876,0 -1.152,-0.2424 -1.6543,-0.5655 -0.2254,0.0468 -0.4609,0.0623 -0.7019,0.0428 -0.5139,-0.0442 -0.9346,-0.2268 -1.2999,-0.476 -0.18,0.0241 -0.3646,0.0295 -0.5528,0.0128 -0.3668,-0.0343 -0.7293,-0.1723 -1.0692,-0.3745 -0.3178,0.0777 -0.7149,0.0621 -1.2818,-0.0595 l 2e-4,-0.003 c -0.4668,-0.0995 -0.7931,-0.2245 -1.0338,-0.3827 -0.6023,-0.1117 -1.1508,-0.4476 -1.5219,-0.9465 l -0.006,-6e-4 -0.004,-2e-4 6e-4,-0.002 c -0.0318,-0.005 -0.0649,-0.0111 -0.0961,-0.0179 -0.1375,-0.0289 -0.2874,-0.0825 -0.4416,-0.1539 -0.3688,0.1202 -0.7711,0.1565 -1.179,0.0876 -1.0247,-0.178 -1.5179,-0.6897 -1.7804,-1.2816 -0.5264,-0.0878 -1.0205,-0.3464 -1.3961,-0.7537 -0.1139,0.0201 -0.2231,0.0377 -0.3234,0.0505 -0.0777,0.0119 -0.157,0.0198 -0.2358,0.0241 -0.0474,0.004 -0.0922,0.005 -0.1327,0.005 l 0,-9e-4 c -0.0672,0 -0.1344,-0.003 -0.2018,-0.008 -0.6307,-0.0521 -1.1858,-0.3384 -1.5874,-0.7648 z m 36.8657,-34.5872 c -0.0851,-0.2344 -0.1854,-0.4513 -0.3031,-0.6491 -4.3732,-6.0177 -11.1191,-7.4495 -16.8015,-9.5182 -5.6296,2.018 -15.5659,5.637 -16.4616,9.7495 -0.0286,0.1723 -0.0561,0.3489 -0.0797,0.5284 -0.4356,0.2925 -0.7602,0.6905 -0.9618,1.1389 -1.1678,0.0964 -2.1823,0.9488 -2.4287,2.1561 -0.0144,0.0742 -0.0263,0.1494 -0.0351,0.2248 -0.4451,0.3699 -0.6914,0.8971 -0.7728,1.5587 -0.481,0.3118 -0.8322,0.7535 -1.034,1.2524 -1.0253,0.3875 -1.7541,1.3776 -1.7541,2.5381 l 6e-4,0.0414 0,0.0116 5e-4,0.0213 c 0.002,0.0771 0.006,0.1545 0.0142,0.2304 -0.7019,0.6092 -1.059,1.556 -0.8952,2.5042 0.0337,0.2242 0.0907,0.4263 0.1664,0.6111 -0.2027,0.3668 -0.3214,0.7835 -0.3348,1.2206 l -8e-4,0 c -0.006,0.1862 0.003,0.3626 0.0261,0.5307 -0.1806,0.1071 -0.33,0.2126 -0.4306,0.3115 -0.5919,0.5763 -0.8637,1.3561 -0.8133,2.12 l -0.003,0 c 0.005,0.0734 0.0142,0.148 0.0264,0.2214 0.0229,0.1517 0.0581,0.3022 0.1069,0.4493 -0.0976,0.2191 -0.1659,0.4516 -0.2019,0.6908 -0.1204,0.7231 -0.0414,1.2997 0.1693,1.7654 -1.1679,0.5882 -1.7312,1.9188 -1.3831,3.1453 -0.3773,0.5511 -0.6437,1.1342 -0.6936,1.6645 -0.004,0.0502 -0.007,0.0993 -0.009,0.148 l -0.001,0 -0.001,0.0261 c -0.0247,0.7095 0.2267,1.3652 0.6573,1.8646 -0.1168,0.2999 -0.189,0.5684 -0.189,0.7776 0,1.0924 0.6457,2.0335 1.5766,2.4633 0.0312,0.3313 0.0777,0.7001 0.1437,1.1094 0.1576,0.997 0.8408,1.7785 1.722,2.1096 0.0261,0.392 0.0794,0.7965 0.18,1.2178 0.2073,0.8915 0.8323,1.576 1.6195,1.8958 0.4456,0.6457 1.1673,1.0936 2.0097,1.1633 0.0749,0.005 0.1489,0.009 0.2228,0.009 l 0,10e-4 c 0.0451,0 0.0944,-10e-4 0.1463,-0.005 0.0879,-0.004 0.1755,-0.013 0.26,-0.0266 0.1114,-0.0148 0.231,-0.0332 0.358,-0.0559 0.4138,0.4493 0.9595,0.735 1.5395,0.8323 0.2905,0.6531 0.835,1.2177 1.9658,1.4133 0.4496,0.0771 0.894,0.0372 1.3002,-0.0952 0.1715,0.0791 0.3371,0.1369 0.4879,0.1695 0.0354,0.007 0.0714,0.0139 0.1068,0.0196 l -8e-4,0.001 0.004,8e-4 0.007,3e-4 c 0.4101,0.5508 1.0145,0.9218 1.6798,1.0449 0.2659,0.1751 0.6259,0.3118 1.1415,0.4223 l -6e-4,0.002 c 0.625,0.1352 1.0636,0.1516 1.4142,0.0657 0.375,0.2237 0.7759,0.3762 1.1809,0.4131 0.2081,0.0192 0.4113,0.0138 0.6098,-0.0125 0.4025,0.2747 0.8679,0.4765 1.4349,0.5241 0.2656,0.0227 0.5252,0.005 0.7744,-0.0468 0.5547,0.3561 1.1775,0.6245 1.8258,0.6245 0.1176,0 0.233,-0.008 0.3461,-0.0218 0.3158,0.2151 0.6797,0.3951 1.1163,0.5088 0.6063,0.157 1.1764,0.203 1.6934,0.0975 0.3299,0.1361 0.6834,0.2058 1.0403,0.2075 l 0,0.003 c 0.9306,0 1.5514,-0.2174 1.9845,-0.5621 0.4315,-6e-4 0.8609,-0.104 1.2498,-0.3081 0.5979,0.1533 1.27,0.1525 2.003,-0.186 0.121,0.0392 0.2486,0.0746 0.3835,0.1061 0.9284,0.2123 1.8547,-0.0806 2.4911,-0.6974 0.5652,0.1511 1.2155,0.1681 2.0064,-0.0774 0.3926,-0.1204 0.7381,-0.3237 1.0238,-0.5825 0.4479,-0.0255 0.9414,-0.1494 1.4865,-0.4079 0.2285,-0.1083 0.4349,-0.2438 0.6169,-0.4014 l 0.0453,-0.0139 c 0.4116,-0.0669 0.8875,-0.4694 0.9238,-0.4827 1.7192,-0.0709 2.4137,-0.6157 2.9265,-1.8658 0.0816,-0.0493 1.0072,-0.5309 1.2745,-1.7549 0.1536,-0.0451 0.2046,-0.1091 0.371,-0.1862 0.2931,-0.0598 2.3899,0.1496 3.0186,-2.2119 1.1024,-0.4527 1.4624,-1.6608 1.463,-2.3919 l 0.008,0 c 0,-0.4062 -0.005,-0.7475 -0.0249,-1.0349 0.0504,-0.2047 0.0969,-0.4141 0.1446,-0.6225 0.8815,-0.4229 1.5003,-1.3076 1.5409,-2.3406 0.0192,-0.318 0.004,-0.6018 -0.042,-0.8552 0.1383,-0.3353 0.2106,-0.699 0.2058,-1.0709 0.8657,-0.5051 1.4168,-1.4746 1.3365,-2.5421 -0.0206,-0.286 -0.0856,-0.5576 -0.1876,-0.8096 0.2458,-0.1777 0.4612,-0.3895 0.6352,-0.6423 0.7597,-1.1137 0.5758,-2.5923 -0.3733,-3.4914 0.1077,-0.7575 -0.1108,-1.5356 -0.6109,-2.1274 0.3028,-0.6271 0.3643,-1.3695 0.1151,-2.0787 -0.206,-0.5828 -0.5913,-1.0514 -1.0723,-1.3646 0.005,-0.007 -0.0723,-0.047 -0.0814,-0.0522 -0.0569,-0.0343 -0.1162,-0.0668 -0.1754,-0.0969 -0.1018,-0.6089 -0.4091,-1.1806 -0.9006,-1.6041 0.0374,-0.3135 0.0312,-0.6429 -0.0448,-1.0058 -0.2384,-1.1449 -1.1673,-1.97 -2.2618,-2.1276 -0.1065,-0.1591 -0.2177,-0.3053 -0.3325,-0.4369 -0.0141,-0.4813 -0.032,-0.8716 -0.0768,-1.0899 -0.0998,-0.4909 -0.3271,-0.9238 -0.64,-1.2702 0.005,-0.0955 0.004,-0.2044 -0.003,-0.3467 -0.0238,-0.4016 -0.0697,-0.6596 -0.2573,-1.0187 -0.1891,-0.455 -0.4902,-0.8312 -0.8561,-1.1095 -0.2375,-1.2898 -1.3513,-2.2309 -2.6666,-2.2297 l 0,-0.003 c -0.0436,0 -0.0875,10e-4 -0.1306,0.003"
           inkscape:connector-curvature="0" />
        <path
           id="path218"
           style="fill:#ffffff;fill-opacity:1;fill-rule:evenodd;stroke:none"
           d="m 251.3636,610.708 c 0.7827,3.7202 6.3298,5.4671 9.3549,5.4671 3.2701,0 9.6888,-2.1702 10.1588,-6.0514 l 0.005,-0.0521 0.004,-0.0386 0.002,-0.0139 0.006,-0.0518 0.003,-0.0244 0.003,-0.0275 0.006,-0.0516 0.001,-0.011 0.005,-0.0411 0.006,-0.0494 0,-0.003 0.006,-0.051 0.003,-0.036 0.003,-0.0173 0.007,-0.051 0.001,-0.0216 0.004,-0.0306 0.006,-0.0519 6e-4,-0.008 0.005,-0.0442 0.006,-0.0463 3e-4,-0.006 0.006,-0.0525 0.004,-0.0317 0.003,-0.0196 0.006,-0.0524 0.003,-0.019 0.004,-0.032 0.007,-0.0525 0,-0.005 0.005,-0.0468 0.006,-0.0439 8e-4,-0.009 0.007,-0.0516 0.004,-0.0295 0.003,-0.0218 0.007,-0.0522 10e-4,-0.0167 0.005,-0.0349 0.007,-0.0515 0,-0.003 0.006,-0.0499 0.005,-0.0402 10e-4,-0.0108 0.007,-0.0527 0.004,-0.0272 0.003,-0.0244 0.007,-0.0516 0.002,-0.0136 0.004,-0.038 0.007,-0.0521 0,0 0.0209,-0.1551 0.003,-0.0247 0.004,-0.0263 0.0151,-0.1046 0.006,-0.0482 10e-4,-0.003 0.007,-0.0522 0.005,-0.0349 0.002,-0.0164 0.008,-0.0516 0.002,-0.0218 0.004,-0.0303 0.0369,-0.2577 0.008,-0.0513 0.003,-0.019 0.005,-0.0329 0.0147,-0.1032 0.007,-0.0433 8e-4,-0.008 0.007,-0.051 0.004,-0.0298 0.003,-0.0223 0.008,-0.0514 0.002,-0.0155 0.006,-0.036 0.0467,-0.3087 c -0.7659,0.6491 -1.44,1.1358 -2.1605,1.5315 -0.9788,0.5378 -2.0109,0.8893 -3.437,1.2334 -0.4944,0.1193 -0.9902,-0.1834 -1.1092,-0.6772 -0.1194,-0.4924 0.1834,-0.989 0.6763,-1.1084 1.2603,-0.305 2.1592,-0.6077 2.9835,-1.0607 0.2744,-0.1511 0.5437,-0.3192 0.82,-0.5133 l -4.5618,0 c -1.396,0 -2.5375,-1.1416 -2.5375,-2.5368 l 0,-0.7687 c -0.3053,0.1854 -0.6336,0.284 -0.9689,0.284 -0.2999,0 -0.593,-0.0791 -0.868,-0.2259 l 0,0.7106 c 0,1.3952 -1.1418,2.5368 -2.5373,2.5368 l -4.8322,0 c 0.2764,0.1941 0.5451,0.3622 0.8192,0.5133 0.8255,0.453 1.7232,0.7557 2.9838,1.0607 0.4929,0.1194 0.7959,0.616 0.6772,1.1084 -0.1197,0.4938 -0.6163,0.7965 -1.1095,0.6772 -1.4267,-0.3441 -2.4585,-0.6956 -3.437,-1.2334 -0.6029,-0.3305 -1.1719,-0.7251 -1.7892,-1.224 l 0.0218,0.1656 0.004,0.0306 0.0332,0.2466 0.006,0.0485 0,0.007 0.0389,0.2894 0.006,0.0442 c 0.0426,0.3339 0.0851,0.6693 0.1262,1.0057 l 0.006,0.0434 0.001,0.0131 0.0269,0.2247 0.007,0.0564 0.001,0.005 0.0117,0.1001 2e-4,0.007 0.007,0.0561 0.005,0.0374 0.002,0.0193 0.007,0.0564 0.003,0.0247 0.004,0.0312 0.007,0.0569 0.001,0.0125 0.005,0.0437 0.007,0.0561 0,0 0.006,0.0561 0.0136,0.1137 0.003,0.0312 0.003,0.026 0.006,0.0562 0.003,0.0187 0.004,0.0385 0.0127,0.1123 0.005,0.0501 0.001,0.007 0.006,0.0566 0.004,0.0377 0.002,0.0193 0.006,0.0561 0.002,0.0258 0.004,0.0307 0.006,0.0581 10e-4,0.0116 0.005,0.0451 0.006,0.0564 z m 21.7412,-13.381 0.0142,-0.0711 0.026,-0.1284 0.0196,-0.0981 c 0.4215,-2.092 1.2155,-5.6361 0.9405,-7.729 -0.0388,-0.2712 -0.0983,-0.5363 -0.2041,-0.7905 l -0.0323,-0.072 c -0.0116,-0.0233 -0.0229,-0.0457 -0.0354,-0.0689 -3.2148,-4.343 -8.5978,-5.3924 -12.8052,-6.986 -2.6003,0.9703 -11.8905,3.9367 -12.3339,6.9616 l -0.001,0.0145 c -0.3317,2.5154 0.3881,6.7697 0.6996,8.7823 l 0.007,0.0428 0.0212,0.1408 8.1924,0 c 1.3955,0 2.5373,1.1418 2.5373,2.5368 l 0,0.5468 c 0.0394,0.0496 0.08,0.0963 0.1228,0.1394 0.2162,0.2172 0.4736,0.3402 0.7452,0.3402 0.2526,0 0.4944,-0.1063 0.7013,-0.2965 0.0975,-0.0902 0.1868,-0.199 0.2676,-0.3232 l 0,-0.4067 c 0,-1.395 1.1415,-2.5368 2.5375,-2.5368 l 8.4592,0 c 0.0397,0 0.0799,6e-4 0.1202,0.002"
           inkscape:connector-curvature="0" />
        <path
           id="path220"
           style="fill:#b7ccd8;fill-opacity:1;fill-rule:evenodd;stroke:none"
           d="m 252.0768,591.3669 c 0.4337,0.006 2.6223,-0.2384 2.6153,-0.2704 -0.2991,-0.0791 -1.9531,-1.0157 -1.9857,-1.2215 0.3883,-0.0703 1.7603,0.2234 2.5194,0.2234 -0.1641,-0.4808 -0.9445,-0.6905 -0.9927,-1.3774 0.2223,-0.1468 1.51,0.4337 1.9109,0.4981 0.2114,-0.3847 -0.2288,-1.0018 -0.0598,-1.4134 0.009,6e-4 1.8212,0.6789 1.872,0.6676 0,-0.5417 0,-1.0446 0,-1.546 0.5726,0.1499 1.3167,0.862 1.3376,0.8651 0.0831,-0.1516 0.6809,-1.1687 0.7271,-1.1426 0.0632,0.1261 0.7781,3.1322 0.9893,3.916 0.013,0.0502 0.1227,0.3138 0.3453,0.3974 0.1876,-0.0742 0.324,-0.3614 0.3379,-0.4118 0.2106,-0.7838 0.8529,-3.7755 0.9164,-3.9016 0.0462,-0.0261 0.6443,0.991 0.7271,1.1426 0.0207,-0.003 0.7656,-0.7152 1.3385,-0.8651 0,0.5014 0,1.0043 0,1.546 0.0496,0.0113 1.8612,-0.667 1.8712,-0.6676 0.1686,0.4116 -0.2716,1.0287 -0.0599,1.4134 0.4009,-0.0644 1.6884,-0.6449 1.91,-0.4981 -0.0467,0.6869 -0.8283,0.8966 -0.993,1.3774 0.76,0 2.1323,-0.2937 2.5209,-0.2234 -0.0317,0.2058 -1.686,1.1424 -1.9862,1.2215 -0.007,0.032 2.1815,0.2761 2.6158,0.2704 -6.1002,0.5448 -12.1289,0.572 -18.4774,0"
           inkscape:connector-curvature="0" />
        <path
           id="path222"
           style="fill:#444443;fill-opacity:1;fill-rule:nonzero;stroke:none"
           d="m 251.6363,590.0346 c 0.0142,0.1004 0.053,0.2024 0.1114,0.3047 -0.4017,0.129 -0.7067,0.4879 -0.7463,0.9346 -0.0511,0.593 0.3883,1.1169 0.9824,1.167 3.2072,0.29 6.3321,0.4272 9.425,0.4233 3.0843,-0.003 6.1389,-0.1469 9.2114,-0.4204 0.5712,-0.034 1.0196,-0.5114 1.0126,-1.0897 -0.005,-0.4711 -0.3116,-0.8662 -0.7337,-1.0102 0.0434,-0.0879 0.074,-0.1829 0.0919,-0.2832 0.1029,-0.5896 -0.292,-1.1497 -0.8807,-1.2529 -0.171,-0.0304 -0.3875,-0.0298 -0.6336,-0.0108 l 6e-4,-0.004 -6e-4,0 c 0.0236,-0.3747 -0.1479,-0.7509 -0.4833,-0.9731 -0.377,-0.25 -0.8577,-0.2177 -1.3493,-0.0944 -0.0127,-0.0672 -0.03,-0.1361 -0.0533,-0.2078 -0.136,-0.4915 -0.6052,-0.8339 -1.1327,-0.7906 -0.1332,0.0108 -0.2971,0.0681 -0.5287,0.154 -0.0578,0.0221 -0.1162,0.0487 -0.1717,0.0796 l 0,-0.0331 -0.002,0 c 0,-0.0896 -0.0119,-0.1803 -0.036,-0.2705 -0.1491,-0.5782 -0.7387,-0.9243 -1.3159,-0.7752 -0.2636,0.0688 -0.5284,0.1975 -0.7721,0.3432 -0.0255,-0.0331 -0.0519,-0.0666 -0.0794,-0.0995 -0.102,-0.1828 -0.2582,-0.3398 -0.4598,-0.4399 -0.1256,-0.0629 -0.2574,-0.0992 -0.3883,-0.1103 -0.1942,-0.0272 -0.3994,0.009 -0.6151,0.1265 l 0.002,0.002 c -0.1863,0.1018 -0.3445,0.2591 -0.4459,0.4635 -0.0661,0.1315 -0.1817,0.5998 -0.3195,1.1954 -0.0986,-0.3912 -0.1871,-0.7285 -0.2511,-0.9485 -0.0137,-0.0618 -0.0332,-0.1219 -0.0579,-0.18 -0.009,-0.0289 -0.0193,-0.051 -0.0263,-0.0669 l -0.004,10e-4 c -0.0947,-0.1922 -0.2478,-0.3566 -0.4496,-0.4668 -0.5987,-0.3263 -1.1242,-0.0114 -1.5389,0.5232 -0.2013,-0.1213 -0.4198,-0.2296 -0.6384,-0.3038 -0.1253,-0.0496 -0.2611,-0.0771 -0.4036,-0.0771 -0.5982,0 -1.0837,0.485 -1.0837,1.0834 l 0,0.0326 c -0.0545,-0.0304 -0.1103,-0.0567 -0.1673,-0.0783 -0.0799,-0.03 -0.1547,-0.0561 -0.2208,-0.0782 -0.0751,-0.0306 -0.1528,-0.0516 -0.2287,-0.0641 -0.0335,-0.005 -0.0633,-0.0102 -0.0916,-0.0125 l 0,0.002 c -0.4527,-0.0346 -0.8966,0.2234 -1.0794,0.6664 -0.0468,0.1137 -0.078,0.2237 -0.0981,0.3297 -0.3144,-0.0794 -0.6248,-0.1205 -0.9063,-0.0751 -0.5553,0.0779 -0.9637,0.574 -0.9263,1.1426 l 0.001,0.004 c -0.2341,-0.0176 -0.4425,-0.0196 -0.6094,0.007 l -0.0255,0.004 c -0.5769,0.1003 -0.9715,0.6449 -0.8839,1.2268 z m 0.4405,1.3323 c 0.4334,0.006 2.6221,-0.2384 2.6153,-0.2704 -0.2991,-0.0791 -1.9531,-1.0157 -1.9857,-1.222 0.3883,-0.0698 1.7603,0.2239 2.52,0.2239 -0.1647,-0.4808 -0.9451,-0.6905 -0.9933,-1.3774 0.2223,-0.1468 1.51,0.4337 1.9103,0.4981 0.212,-0.3847 -0.229,-1.0026 -0.0592,-1.4134 0.01,6e-4 1.8212,0.6789 1.872,0.6676 0,-0.5417 0,-1.0446 0,-1.5457 0.5726,0.1496 1.3167,0.8614 1.3376,0.8648 0.0831,-0.1508 0.6818,-1.1687 0.7271,-1.1426 0.0629,0.1261 0.7781,3.1322 0.9893,3.9163 0.013,0.0499 0.1227,0.3135 0.3453,0.3971 0.1876,-0.0742 0.324,-0.3614 0.3379,-0.4127 0.2106,-0.7829 0.8529,-3.7746 0.9164,-3.9007 0.0456,-0.0261 0.6443,0.9918 0.7265,1.1426 0.0213,-0.003 0.7662,-0.7152 1.3388,-0.8648 0,0.5011 0,1.004 0,1.5457 0.0499,0.0113 1.8615,-0.667 1.8715,-0.6676 0.1686,0.4108 -0.271,1.0287 -0.0599,1.4134 0.4009,-0.0644 1.6884,-0.6449 1.91,-0.4981 -0.0467,0.6869 -0.8283,0.8966 -0.993,1.3774 0.76,0 2.1323,-0.2937 2.5195,-0.2239 -0.0303,0.2063 -1.6846,1.1429 -1.9848,1.222 -0.007,0.032 2.1812,0.2761 2.6158,0.2704 -6.1002,0.5448 -12.1289,0.572 -18.4774,0"
           inkscape:connector-curvature="0" />
        <path
           id="path224"
           style="fill:#444443;fill-opacity:1;fill-rule:nonzero;stroke:none"
           d="m 253.8692,600.6166 c -0.1528,-0.3027 -0.5213,-0.4235 -0.8235,-0.2712 -0.3016,0.1525 -0.4232,0.5212 -0.2704,0.8234 0.2228,0.4408 0.5678,0.8014 0.9847,1.05 0.4147,0.2472 0.8983,0.3863 1.4003,0.3863 0.4593,0 0.9029,-0.1151 1.2941,-0.3248 0.3934,-0.2118 0.7302,-0.5185 0.9722,-0.8994 0.1812,-0.2869 0.0964,-0.6665 -0.1899,-0.8479 -0.2866,-0.1814 -0.6653,-0.0967 -0.847,0.1902 -0.1281,0.2007 -0.3072,0.3637 -0.5167,0.4762 -0.2121,0.114 -0.4573,0.1766 -0.7127,0.1766 -0.2809,0 -0.5476,-0.0745 -0.7707,-0.2086 -0.2211,-0.1318 -0.4039,-0.3214 -0.5204,-0.5508"
           inkscape:connector-curvature="0" />
        <path
           id="path226"
           style="fill:#444443;fill-opacity:1;fill-rule:nonzero;stroke:none"
           d="m 269.2689,601.1688 c 0.1525,-0.3022 0.0318,-0.6709 -0.2709,-0.8234 -0.3028,-0.1523 -0.6716,-0.0315 -0.8238,0.2712 -0.1171,0.2294 -0.2988,0.419 -0.5199,0.5508 -0.2233,0.1341 -0.4895,0.2086 -0.7704,0.2086 -0.2563,0 -0.5018,-0.0626 -0.7127,-0.1766 -0.2109,-0.1134 -0.3914,-0.2755 -0.5167,-0.4742 -0.1809,-0.2863 -0.5593,-0.3728 -0.8453,-0.1922 -0.2857,0.1809 -0.3725,0.559 -0.1922,0.845 0.2429,0.3838 0.58,0.6917 0.9726,0.9023 0.3897,0.2097 0.8342,0.3248 1.2943,0.3248 0.5011,0 0.9847,-0.1391 1.3992,-0.3863 0.4166,-0.2486 0.7628,-0.6092 0.9858,-1.05"
           inkscape:connector-curvature="0" />
        <path
           id="path228"
           style="fill:#444443;fill-opacity:1;fill-rule:nonzero;stroke:none"
           d="m 262.4122,595.7532 c 0.1534,0.3022 0.521,0.4244 0.8241,0.2713 0.3021,-0.1522 0.4234,-0.5216 0.2715,-0.824 -0.2242,-0.4402 -0.5692,-0.8017 -0.9853,-1.05 -0.415,-0.248 -0.8986,-0.3861 -1.4,-0.3861 -0.4598,0 -0.9046,0.116 -1.2946,0.3249 -0.3918,0.2112 -0.7297,0.519 -0.972,0.9025 -0.1803,0.2861 -0.0941,0.6642 0.1913,0.8448 0.2866,0.18 0.6656,0.0949 0.8462,-0.1914 0.1258,-0.2001 0.3052,-0.3617 0.5153,-0.4751 0.2123,-0.1139 0.4575,-0.1766 0.7138,-0.1766 0.2806,0 0.5468,0.0749 0.7704,0.2087 0.2211,0.1315 0.4031,0.3206 0.5193,0.551"
           inkscape:connector-curvature="0" />
      </g>
      <text
         sodipodi:linespacing="125%"
         id="text3725"
         y="315.70587"
         x="213.28297"
         style="font-size:161.01338196px;font-style:normal;font-variant:normal;font-weight:normal;font-stretch:normal;text-align:center;line-height:125%;letter-spacing:0px;word-spacing:0px;text-anchor:middle;opacity:0.5;fill:#ffffff;fill-opacity:1;stroke:none;font-family:Aller;-inkscape-font-specification:Aller"
         xml:space="preserve"><tspan
           style="font-style:normal;font-variant:normal;font-weight:normal;font-stretch:normal;fill:#ffffff;font-family:FontAwesome;-inkscape-font-specification:FontAwesome"
           y="315.70587"
           x="213.28297"
           id="tspan3727"
           sodipodi:role="line"></tspan></text>
    </g>
  </g>
</svg>
